<?xml version="1.0" encoding="utf-8"?>
<svg width="1000px" height="1000px" viewBox="0 0 1000 1000" version="1.1" xmlns:xlink="http://www.w3.org/1999/xlink" xmlns="http://www.w3.org/2000/svg">
  <defs>
    <linearGradient gradientUnits="objectBoundingBox" x1="0.49999997" y1="0" x2="0.49999997" y2="1" id="gradient_1">
      <stop offset="0%" stop-color="#34619B" />
      <stop offset="100%" stop-color="#13284A" />
    </linearGradient>
  </defs>
  <g id="Clash-Restart">
    <path d="M0 0L1000 0L1000 1000L0 1000L0 0Z" id="border" fill="none" fill-rule="evenodd" stroke="none" />
    <g id="restart" transform="translate(64 23)">
      <path d="M250 1.20516e-12C111.929 -1.3411e-05 1.78814e-05 111.928 8.57e-12 250C-3.57628e-05 388.071 111.929 500 250 500C388.071 500 500 388.071 500 250C499.952 111.842 387.985 -0.0476137 249.914 2.23517e-05L250 1.20516e-12L250 1.20516e-12Z" id="circle" fill="#FFA000" fill-rule="evenodd" stroke="none" />
      <path d="M255 119.27C250.403 119.27 245.855 119.477 241.364 119.879L241.364 65L105 173.534L241.364 254.935L241.364 202.027C245.77 201.137 250.33 200.669 255 200.669C292.655 200.669 323.182 231.039 323.182 268.502C323.182 305.966 292.655 336.336 255 336.336C230.464 336.336 208.959 323.44 196.95 304.09C195.792 301.057 194.282 298.197 192.467 295.561C192.24 295.043 192.017 294.523 191.803 293.998L191.409 294.093C183.944 284.218 172.068 277.831 158.692 277.831C136.099 277.831 117.783 296.054 117.783 318.531C117.783 320.287 117.895 322.016 118.111 323.713L116.287 325.395C138.769 379.595 192.406 417.74 255 417.74C337.844 417.74 405 350.924 405 268.502C405 186.084 337.844 119.27 255 119.27L255 119.27Z" id="return" fill="#FFFFFF" stroke="none" />
    </g>
    <g id="clash" transform="translate(190.99951 252.99957)">
      <path d="M244.562 1.69791C258.189 -0.735431 268.27 10.4921 276.856 19.2436C304.665 50.3647 324.443 87.4625 345.203 123.408C413.038 107.313 484.675 109.448 552.723 123.408C571.22 86.7368 588.606 49.0413 613.51 16.2126C619.875 9.42484 626.752 -0.650049 637.047 0.0329934C648.111 14.1635 648.367 33.2887 653.066 49.9805C660.285 77.3449 663.276 105.478 669.469 133.056C698.902 307.659 727.095 482.688 744.225 658.999C745.506 674.453 747.087 690.12 744.951 705.574C740.764 711.636 733.161 711.764 726.668 713.087C706.975 717.015 686.813 716.033 666.906 717.527C620.088 723.162 572.758 718.765 525.897 723.461C468.955 724.229 412.013 724.059 355.071 723.674C284.075 717.74 211.413 725.339 141.741 708.093C103.809 706.385 62.4583 699.811 34.4358 671.806C4.3202 644.954 -5.84649 600.513 3.16684 562.092C10.9414 526.19 40.4162 497.416 74.6327 485.805C86.3372 481.536 102.527 481.365 109.703 493.318C112.993 504.93 101.203 511.547 93.471 517.395C76.555 528.794 58.0584 541.046 50.7538 561.11C43.919 584.632 49.2587 612.723 68.4387 629.158C89.7118 648.155 119.827 650.375 146.996 651.998C158.017 525.72 174.249 399.912 191.379 274.36C202.613 196.835 213.421 119.139 230.209 42.5952C234.01 28.7636 235.89 13.5659 244.562 1.69797" id="body" fill="url(#gradient_1)" fill-rule="evenodd" stroke="none" />
      <path d="M443.455 346.703C437.688 351.74 431.409 356.095 425.001 360.321C419.234 358.443 413.467 356.394 407.829 354.131L407.316 367.151C421.199 374.964 436.278 371.122 449.435 364.035C462.592 371.122 477.714 374.836 491.597 367.151C491.469 363.907 491.255 357.375 491.127 354.131C485.488 356.394 479.722 358.443 473.955 360.278C467.547 356.137 461.268 351.74 455.501 346.703C451.486 346.66 447.47 346.66 443.455 346.703L443.455 346.703Z" id="mouth" fill="#FFFFFF" fill-rule="evenodd" stroke="none" />
      <path d="M569.81 250.539C543.667 259.547 539.395 299.846 562.505 314.617C583.992 331.053 619.661 314.916 619.704 287.381C623.164 260.87 594.073 240.422 569.81 250.539" id="right-eye" fill="#FFFFFF" fill-rule="evenodd" stroke="none" />
      <path d="M317.437 249.515C302.7 251.863 290.696 263.901 287.535 278.33C283.263 297.157 297.061 317.733 316.284 320.466C339.949 325.93 363.572 301.895 358.446 278.458C355.541 259.717 335.977 245.971 317.437 249.515" id="left-eye" fill="#FFFFFF" fill-rule="evenodd" stroke="none" />
    </g>
  </g>
</svg>