<?xml version="1.0" encoding="utf-8"?>
<svg width="1000px" height="1000px" viewBox="0 0 1000 1000" version="1.1" xmlns:xlink="http://www.w3.org/1999/xlink" xmlns="http://www.w3.org/2000/svg">
  <defs>
    <linearGradient gradientUnits="objectBoundingBox" x1="0.49999997" y1="0" x2="0.49999997" y2="1" id="gradient_1">
      <stop offset="0%" stop-color="#34619B" />
      <stop offset="100%" stop-color="#13284A" />
    </linearGradient>
  </defs>
  <g id="Clash-Download-Core">
    <path d="M0 0L1000 0L1000 1000L0 1000L0 0Z" id="border" fill="none" fill-rule="evenodd" stroke="none" />
    <g id="download" transform="translate(64 23.000443)">
      <path d="M250 1.20516e-12C111.929 -1.3411e-05 1.78814e-05 111.928 8.57e-12 250C-3.57628e-05 388.071 111.929 500 250 500C388.071 500 500 388.071 500 250C499.952 111.842 387.985 -0.0476137 249.914 2.23517e-05L250 1.20516e-12L250 1.20516e-12Z" id="circle" fill="#1296DB" fill-rule="evenodd" stroke="none" />
      <path d="M346.25 316L268 394.5C264.487 398.017 259.721 399.995 254.75 400L245.25 400C240.289 399.942 235.543 397.972 232 394.5L153.75 316C151.383 313.653 150.052 310.458 150.052 307.125C150.052 303.792 151.383 300.597 153.75 298.25L171.5 280.5C173.804 278.148 176.957 276.823 180.25 276.823C183.542 276.823 186.696 278.148 189 280.5L225 316.75L225 112.5C225 105.596 230.596 99.9999 237.5 99.9999L262.5 99.9999C269.403 99.9999 275 105.596 275 112.5L275 316.75L311 280.5C313.347 278.133 316.542 276.802 319.875 276.802C323.208 276.802 326.403 278.133 328.75 280.5L346.25 298.25C348.616 300.597 349.947 303.792 349.947 307.125C349.947 310.458 348.616 313.653 346.25 316L346.25 316L346.25 316Z" id="arrow" fill="#FFFFFF" fill-rule="evenodd" stroke="none" />
    </g>
    <g id="clash" transform="translate(190.99951 253)">
      <path d="M244.562 1.69791C258.189 -0.735431 268.27 10.4921 276.856 19.2436C304.665 50.3647 324.443 87.4625 345.203 123.408C413.038 107.313 484.675 109.448 552.723 123.408C571.22 86.7368 588.606 49.0413 613.51 16.2126C619.875 9.42484 626.752 -0.650049 637.047 0.0329934C648.111 14.1635 648.367 33.2887 653.066 49.9805C660.285 77.3449 663.276 105.478 669.469 133.056C698.902 307.659 727.095 482.688 744.225 658.999C745.506 674.453 747.087 690.12 744.951 705.574C740.764 711.636 733.161 711.764 726.668 713.087C706.975 717.015 686.813 716.033 666.906 717.527C620.088 723.162 572.758 718.765 525.897 723.461C468.955 724.229 412.013 724.059 355.071 723.674C284.075 717.74 211.413 725.339 141.741 708.093C103.809 706.385 62.4583 699.811 34.4358 671.806C4.3202 644.954 -5.84649 600.513 3.16684 562.092C10.9414 526.19 40.4162 497.416 74.6327 485.805C86.3372 481.536 102.527 481.365 109.703 493.318C112.993 504.93 101.203 511.547 93.471 517.395C76.555 528.794 58.0584 541.046 50.7538 561.11C43.919 584.632 49.2587 612.723 68.4387 629.158C89.7118 648.155 119.827 650.375 146.996 651.998C158.017 525.72 174.249 399.912 191.379 274.36C202.613 196.835 213.421 119.139 230.209 42.5952C234.01 28.7636 235.89 13.5659 244.562 1.69797" id="body" fill="url(#gradient_1)" fill-rule="evenodd" stroke="none" />
      <path d="M443.455 346.703C437.688 351.74 431.409 356.095 425.001 360.321C419.234 358.443 413.467 356.394 407.829 354.131L407.316 367.151C421.199 374.964 436.278 371.122 449.435 364.035C462.592 371.122 477.714 374.836 491.597 367.151C491.469 363.907 491.255 357.375 491.127 354.131C485.488 356.394 479.722 358.443 473.955 360.278C467.547 356.137 461.268 351.74 455.501 346.703C451.486 346.66 447.47 346.66 443.455 346.703L443.455 346.703Z" id="mouth" fill="#FFFFFF" fill-rule="evenodd" stroke="none" />
      <path d="M569.81 250.539C543.667 259.547 539.395 299.846 562.505 314.617C583.992 331.053 619.661 314.916 619.704 287.381C623.164 260.87 594.073 240.422 569.81 250.539" id="right-eye" fill="#FFFFFF" fill-rule="evenodd" stroke="none" />
      <path d="M317.437 249.515C302.7 251.863 290.696 263.901 287.535 278.33C283.263 297.157 297.061 317.733 316.284 320.466C339.949 325.93 363.572 301.895 358.446 278.458C355.541 259.717 335.977 245.971 317.437 249.515" id="left-eye" fill="#FFFFFF" fill-rule="evenodd" stroke="none" />
    </g>
  </g>
</svg>